<?xml version="1.0" encoding="utf-8"?>
<!-- Generator: Adobe Illustrator 16.0.1, SVG Export Plug-In . SVG Version: 6.00 Build 0)  -->
<!DOCTYPE svg PUBLIC "-//W3C//DTD SVG 1.1//EN" "http://www.w3.org/Graphics/SVG/1.1/DTD/svg11.dtd">
<svg version="1.1" id="Layer_1" xmlns="http://www.w3.org/2000/svg" xmlns:xlink="http://www.w3.org/1999/xlink" x="0px" y="0px"
	 width="89.16px" height="79.535px" viewBox="0 0 89.16 79.535" enable-background="new 0 0 89.16 79.535" xml:space="preserve">
<path fill="#FFFFFF" d="M30.563,49.222c-4.916,0.123-4.871-3.362-6.229-7.044c-1.817-4.931-5.102-9.182-7.22-13.994
	c-1.045-2.373-2.39-7.828-4.633-2.592c-0.993,2.318-0.247,7.156-3.941,6.851c0.589-2.265,0.657-3.52-0.402-5.68
	c-0.459-0.832-0.743-1.718-0.851-2.66c-0.754-0.001-1.37-0.282-1.846-0.844C2.476,19.537,8.04,16.323,7.42,12.932
	C5.938,12.166,1.589,14.39,1,12.599c1.12-0.386,1.433-1.754,2.349-2.391c1.905-1.327,3.896-0.313,5.686-2.344
	c2.212-2.509,3.742-6.978,7.975-5.805c3.345,0.927,6.773,0.254,10.2,1.235c2.048,0.585,3.882,1.656,5.754,2.626
	c1.352,0.699,4.181,1.092,5.188,2.202c-1.577,1.515-8.199-1.933-9.856-2.191c-1.823-0.282-8.996,0.228-9.346,3.092
	c4.115,0.011,7.378,6.441,10.897,8.053c2.469,1.132,5.021,1.576,7.729,1.577c3.563,0.001,6.682,1.493,10.244,1.691
	c6.807,0.379,13.512-1.555,20.197-2.513c2.931-0.421,12.19-0.577,13.287,3.581c2.598-3.067-6.997-3.13-4.872-7.421
	c0.82,0.168,1.627,0.118,2.42-0.154c0.931,0.342,1.83,0.753,2.698,1.23c0.377,2.149,2.745,3.124,3.34,5.347
	c0.169,1.128,0.222,2.262,0.157,3.4c0.102,1.47,1.728,2.324,2.25,3.65c0.878,2.229-0.615,5.366-1.171,7.531
	c-1.173,4.567-3.515,9.076-3.606,13.853c-0.049,2.48-2.133,4.945-0.71,6.982c1.647,2.359,1.479,3.853,1.45,6.658
	c-0.021,2.362,0.999,4.679,1.528,6.952c0.806,3.443,0.443,3.984-2.411,5.668c-1.121,0.661-4.415,1.021-5.281-0.305
	c-0.306-0.467,1.39-3.635,1.473-4.469c0.36-3.556,0.466-8.934-0.884-12.287c-0.987-2.454-1.251-4.655-3.014-6.585
	c-1.786-1.956-1.077-3.308-2.051-5.591c-2.075,4.2-8.552,4.905-12.578,5.079c-3.165,0.138-6.348,0.141-9.492-0.268
	c-2.631-0.342-7.24-2.671-9.713-1.004c-2.711,1.829-1.808,6.919-1.957,9.646c-0.147,2.693-0.816,5.354-1.017,8.053
	c-0.142,1.915-0.134,3.851,0.175,5.752c0.21,1.303,1.452,2.099,1.838,3.331c-1.643,1.427-6.398,1.423-8.494,1.341
	c0.316-0.335,0.463,0.259,0.484-0.21c-0.1,0.06-1.301,0.153-1.432,0.235c0.015-0.483-0.003-1.762,0.364-2.112
	c-0.93-0.01-1.787,0.369-2.786,0.347c3.463-4.504,3.497-8.105,2.796-13.276C30.352,59.436,33.241,51.906,30.563,49.222
	C28.781,49.266,30.948,49.606,30.563,49.222z"/>
</svg>
