<svg xmlns="http://www.w3.org/2000/svg" xmlns:xlink="http://www.w3.org/1999/xlink" xmlns:a="http://ns.adobe.com/AdobeSVGViewerExtensions/3.0/" version="1.1" x="0px" y="0px" width="100px" height="100px" viewBox="-4.501 -9.913 100 100" overflow="visible" enable-background="new -4.501 -9.913 100 100" xml:space="preserve">
<defs>
</defs>
<path d="M30.449,49.578c-5.063,0.129-5.017-3.52-6.415-7.375c-1.871-5.162-5.254-9.613-7.436-14.651  c-1.077-2.485-2.462-8.196-4.772-2.714c-1.023,2.427-0.254,7.492-4.06,7.173c0.607-2.371,0.677-3.685-0.414-5.947  c-0.472-0.871-0.764-1.799-0.876-2.785c-0.776-0.001-1.41-0.295-1.901-0.884c-3.055-3.896,2.676-7.26,2.038-10.811  C5.086,10.782,0.607,13.111,0,11.236C1.153,10.832,1.476,9.4,2.419,8.733c1.962-1.389,4.012-0.328,5.856-2.454  c2.278-2.627,3.854-7.306,8.214-6.078c3.445,0.97,6.976,0.266,10.505,1.293c2.109,0.613,3.998,1.734,5.927,2.75  c1.392,0.732,4.306,1.143,5.343,2.306C36.64,8.136,29.82,4.526,28.113,4.256c-1.878-0.296-9.266,0.238-9.626,3.237  c4.238,0.012,7.599,6.744,11.223,8.432c2.543,1.185,5.172,1.649,7.961,1.65c3.67,0.002,6.882,1.563,10.551,1.771  c7.01,0.397,13.916-1.627,20.801-2.63c3.02-0.441,12.556-0.604,13.686,3.749c2.676-3.211-7.206-3.278-5.017-7.77  c0.844,0.176,1.675,0.123,2.492-0.161c0.959,0.358,1.885,0.788,2.778,1.288c0.39,2.25,2.828,3.271,3.44,5.598  c0.174,1.181,0.229,2.368,0.163,3.56c0.104,1.539,1.779,2.433,2.317,3.822c0.904,2.334-0.634,5.618-1.206,7.885  c-1.207,4.782-3.619,9.502-3.715,14.503c-0.05,2.597-2.196,5.177-0.73,7.31c1.697,2.471,1.522,4.033,1.494,6.971  c-0.023,2.473,1.027,4.899,1.574,7.279c0.829,3.605,0.456,4.171-2.485,5.934c-1.154,0.692-4.547,1.068-5.439-0.319  c-0.315-0.489,1.431-3.807,1.518-4.679c0.371-3.722,0.479-9.353-0.91-12.864c-1.018-2.57-1.29-4.874-3.105-6.894  c-1.84-2.048-1.111-3.463-2.113-5.854c-2.137,4.398-8.807,5.136-12.954,5.319c-3.26,0.143-6.537,0.146-9.777-0.282  c-2.71-0.357-7.457-2.796-10.004-1.05c-2.793,1.915-1.862,7.244-2.016,10.099c-0.152,2.821-0.841,5.606-1.047,8.431  c-0.146,2.005-0.138,4.032,0.18,6.022c0.217,1.363,1.495,2.197,1.893,3.488c-1.692,1.493-6.59,1.489-8.749,1.403  c0.326-0.35,0.477,0.271,0.499-0.219c-0.103,0.062-1.34,0.161-1.475,0.246c0.015-0.506-0.003-1.843,0.376-2.211  c-0.958-0.012-1.841,0.386-2.87,0.362c3.566-4.715,3.602-8.485,2.88-13.9C30.231,60.271,33.206,52.389,30.449,49.578  C28.614,49.625,30.845,49.981,30.449,49.578z"/>
</svg>